<svg xmlns="http://www.w3.org/2000/svg" fill="none" viewBox="0 0 96 96" id="Microsoft-Windows--Streamline-Svg-Logos"><desc>Microsoft Windows Streamline Icon: https://streamlinehq.com</desc><path fill="#0078d4" d="M39.9348 53.9193h-2.4476l-2.3937 -9.1002 -2.4152 9.1002h-2.5015l-3.2886 -11.8282h2.2211l2.3721 9.413 2.5878 -9.413h2.2427l2.4368 9.4669 2.2535 -9.4669h2.1457l-3.2131 11.8282Zm6.3507 -10.9656c0 0.3111 -0.1096 0.5623 -0.3289 0.7728l-0.0269 0.0251c-0.2264 0.2157 -0.5068 0.3235 -0.841 0.3235 -0.3343 0 -0.6146 -0.1078 -0.841 -0.3235 -0.2265 -0.2156 -0.3451 -0.4744 -0.3451 -0.7979 0 -0.3234 0.1186 -0.593 0.3451 -0.8194 0.2372 -0.2157 0.5175 -0.3235 0.841 -0.3235 0.345 0 0.6254 0.1078 0.8518 0.3343 0.2174 0.2173 0.3354 0.4744 0.3445 0.7713l0.0005 0.0373Zm-2.2211 10.9656v-8.518h1.9839v8.518h-1.9839Zm11.6341 0h-1.9948v-4.7442c0 -1.24 -0.3881 -2.3182 -1.6389 -2.3182 -1.2507 0 -2.0378 1.1214 -2.0378 2.2535v4.8089h-1.9408v-8.518h1.9408v1.1968h0.0323c0.647 -1.0027 1.5742 -1.3477 2.7926 -1.3477 0.9165 0 1.6174 0.2264 2.1241 0.8086 0.5068 0.5823 0.7225 1.4664 0.7225 2.6633v5.197Zm7.7632 0v-1.0998h-0.0323c-0.6146 1.0351 -1.8762 1.2723 -2.7495 1.2723 -2.6093 0 -3.569 -2.027 -3.569 -4.1835 0 -1.434 0.3559 -2.577 1.0675 -3.4288 0.7224 -0.8625 1.682 -1.2399 2.8789 -1.2399 1.8653 0 2.3721 1.0351 2.3721 1.0351h0.0323v-4.9275h2.0163v12.5721h-2.0163Zm0.0216 -4.8628c0 -1.0243 -0.6577 -2.1996 -2.0594 -2.1996 -1.5958 0 -2.2212 1.3909 -2.2212 2.9975 0 1.4017 0.5823 2.6632 2.1026 2.6848 1.473 0 2.143 -1.395 2.1667 -2.5632l0.0113 -0.9195Zm12.1624 0.5607c0 2.9543 -1.7683 4.5501 -4.41 4.5501 -2.8788 0 -4.356 -1.7252 -4.356 -4.3668 0 -3.0191 1.7683 -4.5933 4.5717 -4.5933 2.5554 0 4.1943 1.6389 4.1943 4.41Zm-2.0702 0.0647c0 -1.3155 -0.4636 -2.7711 -2.2427 -2.7711 -1.7036 0 -2.3721 1.2723 -2.3721 2.825 0 1.6928 0.7979 2.7603 2.3505 2.7603 1.6652 0 2.242 -1.2576 2.2638 -2.7684l0.0005 -0.0458Zm12.7447 4.2374h-2.1888l-1.6713 -6.1675 -1.8006 6.1675h-2.1242l-2.4799 -8.4964h2.081l1.6173 6.5987 1.8977 -6.5987h1.9516l1.6928 6.588 1.5743 -6.588h1.9084l-2.4583 8.4964Zm8.6797 -2.3721c0 1.8977 -1.7252 2.6417 -3.4503 2.6417 -1.1214 0 -2.2427 -0.4313 -2.2427 -0.4313v-2.0163l0.0393 0.0326c0.1944 0.1562 1.0909 0.8205 2.2896 0.83 0.9273 0 1.3478 -0.2911 1.3478 -0.8518 0.021 -0.4413 -0.2343 -0.688 -0.5467 -0.8699l-0.077 -0.0437c-0.2261 -0.1256 -0.5551 -0.2869 -1.0044 -0.4666 -0.5607 -0.2372 -0.9812 -0.4744 -1.2508 -0.7008 -0.2695 -0.2264 -0.4744 -0.4852 -0.6038 -0.7871 -0.1293 -0.3019 -0.2264 -0.6362 -0.2264 -1.0351 0 -1.5311 1.2831 -2.6201 3.321 -2.6201 1.3477 0 1.93 0.3342 1.93 0.3342v1.8977l-0.0432 -0.0287c-0.1972 -0.128 -1.0404 -0.6398 -1.9084 -0.6398 -0.7116 0 -1.2508 0.2588 -1.2615 0.8518 0 0.7548 0.9272 1.1322 1.4771 1.3478 0.7874 0.315 1.3704 0.6504 1.6991 1.0361l0.0261 0.0314c0.3362 0.3992 0.4779 0.7882 0.4849 1.4362l0.0003 0.0517Z" stroke-width="1"></path><path fill="#0078d4" d="M1 38.0696h9.4129v9.4129H1v-9.4129Zm10.448 0h9.413v9.4129h-9.413v-9.4129ZM1 48.5176h9.4129v9.413H1v-9.413Zm10.448 0h9.413v9.413h-9.413v-9.413Z" stroke-width="1"></path></svg>