<svg xmlns="http://www.w3.org/2000/svg" fill="none" viewBox="0 0 96 96" id="Macos--Streamline-Svg-Logos"><desc>MacOS Streamline Icon: https://streamlinehq.com</desc><path fill="#000000" d="M1 58.6608h3.68596V49.071c0 -1.8913 1.2434 -3.2655 3.01977 -3.2655 1.71709 0 2.78297 1.0787 2.78297 2.8222v10.0327h3.5822v-9.6782c0 -1.8766 1.2138 -3.1769 2.9901 -3.1769 1.8059 0 2.8126 1.0935 2.8126 3.0144v9.8409h3.6858v-10.742c0 -3.1324 -2.0279 -5.2159 -5.1218 -5.2159 -2.2649 0 -4.1298 1.2117 -4.8851 3.1473h-0.0888c-0.5773 -2.0095 -2.1612 -3.1473 -4.3814 -3.1473 -2.13158 0 -3.78949 1.1969 -4.47046 3.0144h-0.07401v-2.7188H1v15.6625Zm30.6275 -2.5267c-1.5987 0 -2.6645 -0.8127 -2.6645 -2.0982 0 -1.2412 1.0214 -2.0391 2.7977 -2.1573l3.6267 -0.2216v1.1968c0 1.8914 -1.6727 3.2803 -3.7599 3.2803Zm-1.1102 2.7779c2.0131 0 3.982 -1.0491 4.885 -2.7483h0.074v2.4971h3.5527V47.8742c0 -3.1472 -2.5313 -5.2011 -6.4244 -5.2011 -3.9967 0 -6.4982 2.0982 -6.6611 5.0237h3.4194c0.2368 -1.3003 1.347 -2.1425 3.0938 -2.1425 1.8207 0 2.9309 0.9457 2.9309 2.5858v1.123l-4.1449 0.2364c-3.8191 0.2364 -5.9654 1.9061 -5.9654 4.684 0 2.8222 2.2055 4.7285 5.24 4.7285Zm24.6915 -10.3285c-0.2516 -3.2951 -2.8125 -5.9104 -6.9571 -5.9104 -4.5591 0 -7.5198 3.1473 -7.5198 8.1561 0 5.0831 2.9605 8.1414 7.5494 8.1414 3.9376 0 6.6464 -2.3051 6.9423 -5.8071H51.745c-0.3405 1.7731 -1.5543 2.837 -3.4194 2.837 -2.3389 0 -3.8486 -1.8913 -3.8486 -5.1717 0 -3.2211 1.495 -5.1716 3.819 -5.1716 1.9688 0 3.1382 1.256 3.4342 2.9257h3.4787l-0.0001 0.0006Zm11.384 -11.5991c-6.2318 0 -10.1399 4.2407 -10.1399 11.023 0 6.7823 3.9077 11.0082 10.1399 11.0082 6.2171 0 10.1252 -4.2259 10.1252 -11.0082s-3.9077 -11.023 -10.1252 -11.023Zm0 3.2507c3.8043 0 6.2319 3.0143 6.2319 7.7722 0 4.7431 -2.4277 7.7574 -6.2319 7.7574 -3.819 0 -6.2318 -3.0143 -6.2318 -7.7574 0 -4.7578 2.4129 -7.7722 6.2318 -7.7722Zm11.68 12.4267c0.1628 3.9306 3.3898 6.3537 8.3043 6.3537 5.1662 0 8.4229 -2.5414 8.4229 -6.5901 0 -3.1768 -1.8356 -4.9647 -6.1727 -5.9546l-2.4573 -0.5615c-2.6201 -0.6206 -3.7006 -1.448 -3.7006 -2.8665 0 -1.7731 1.6283 -2.9552 4.0411 -2.9552 2.4424 0 4.115 1.1968 4.2927 3.1916h3.6415c-0.0888 -3.7531 -3.1974 -6.2947 -7.9045 -6.2947 -4.6482 0 -7.9492 2.5562 -7.9492 6.3389 0 3.0439 1.8651 4.9353 5.8025 5.8367l2.7681 0.6501c2.6941 0.6354 3.7895 1.5219 3.7895 3.0586 0 1.7731 -1.7912 3.0439 -4.3667 3.0439 -2.6052 0 -4.5739 -1.2855 -4.8107 -3.2507H78.273l-0.0002 -0.0002Z" stroke-width="1"></path></svg>